<?xml version="1.0" encoding="UTF-8"?>
<!DOCTYPE svg PUBLIC "-//W3C//DTD SVG 1.1//EN" "http://www.w3.org/Graphics/SVG/1.1/DTD/svg11.dtd">
<!-- Creator: CorelDRAW 2018 (64-Bit Evaluation Version) -->
<svg xmlns="http://www.w3.org/2000/svg" xml:space="preserve" width="160px" height="46px" version="1.1" style="shape-rendering:geometricPrecision; text-rendering:geometricPrecision; image-rendering:optimizeQuality; fill-rule:evenodd; clip-rule:evenodd"
viewBox="0 0 6276.86 1790.77"
 xmlns:xlink="http://www.w3.org/1999/xlink">
 <defs>
  <style type="text/css">
   <![CDATA[
    .str0 {stroke:#FEFEFE;stroke-width:20.32;stroke-miterlimit:4}
    .fil3 {fill:none;fill-rule:nonzero}
    .fil2 {fill:#D3D800;fill-rule:nonzero}
    .fil1 {fill:#0088CE;fill-rule:nonzero}
    .fil0 {fill:#213C52;fill-rule:nonzero}
   ]]>
  </style>
 </defs>
 <g id="Layer_x0020_1">
  <metadata id="CorelCorpID_0Corel-Layer"/>
  <path class="fil0" d="M2510.83 1525.34l-48.93 65.73 -4.94 0.63 -56.19 -53.73c-83.31,77.93 -166.65,126.8 -249.98,146.69l-1.14 1.5 3.21 88.82 -123.55 15.77 -5.84 -91.3c-41.19,1.28 -77.04,-2.6 -107.51,-11.73 -71.9,-20.55 -122.8,-43.3 -152.65,-68.28l-51.25 68.85 -4.94 0.65 -56.15 -53.71 -0.28 -5.63 126.94 -170.55 4.94 -0.63 11.77 11.26c25.26,24.12 66.22,48.14 122.98,72.04 46.9,14.08 94.47,20.24 142.67,18.55 68.93,-9.47 124.42,-26.99 166.45,-52.39 57.61,-37.33 99.71,-73.86 126.29,-109.61l10.48 -14.1 4.94 -0.65 142.37 136.21 0.31 5.59z"/>
  <path class="fil1" d="M2654.32 528.73c0,22.36 -18.29,40.64 -40.64,40.64l-256.73 0c-22.36,0 -40.64,18.29 -40.64,40.64l0 141.39c0,22.35 18.29,40.64 40.64,40.64l236.83 0c22.36,0 40.64,18.29 40.64,40.64l0 75.15c0,22.35 -18.29,40.64 -40.64,40.64l-236.83 0c-22.36,0 -40.64,18.29 -40.64,40.64l0 173.19c0,22.35 18.29,40.64 40.64,40.64l269.98 0c22.35,0 40.64,18.29 40.64,40.64l0 75.11c0,22.37 -18.29,40.64 -40.64,40.64l-460.85 0c-22.35,0 -40.64,-18.27 -40.64,-40.64l0 -865.07c0,-22.36 18.29,-40.64 40.64,-40.64l447.61 0c22.35,0 40.64,18.29 40.64,40.64l0 75.1z"/>
  <path class="fil1" d="M3200.04 1022.82c7.49,21.05 14.22,38.28 14.95,38.28 0.73,0 1.32,-18.29 1.32,-40.64l0 -566.85c0,-22.35 18.29,-40.64 40.64,-40.64l93.7 0c22.33,0 40.64,18.29 40.64,40.64l0 865.09c0,22.35 -18.31,40.64 -40.64,40.64l-136.11 0c-22.36,0 -46.7,-17.27 -54.13,-38.35l-206.32 -586.06c-7.42,-21.09 -14.08,-38.35 -14.82,-38.35 -0.73,0 -1.32,18.29 -1.32,40.64l0 581.48c0,22.35 -18.29,40.64 -40.64,40.64l-93.68 0c-22.35,0 -40.64,-18.29 -40.64,-40.64l0 -865.09c0,-22.35 18.29,-40.64 40.64,-40.64l138.75 0c22.36,0 46.78,17.23 54.28,38.28l203.37 571.56z"/>
  <path class="fil1" d="M3938.03 639.61c-3.96,-18.55 -10.4,-35.56 -19.2,-51.02 -8.86,-15.44 -20.14,-28.29 -33.81,-38.47 -13.71,-10.12 -30.3,-15.24 -49.7,-15.24 -45.94,0 -79.09,25.64 -99.41,76.92 -20.32,51.25 -30.48,136.07 -30.48,254.46 0,56.59 1.75,107.84 5.28,153.78 3.51,45.97 9.96,85.04 19.24,117.29 9.26,32.29 22.52,57.02 39.77,74.23 17.21,17.25 39.52,25.85 66.92,25.85 11.48,0 24.05,-3.07 37.78,-9.29 13.69,-6.16 26.51,-15.42 38.44,-27.82 11.93,-12.38 21.89,-28.05 29.83,-47.07 7.94,-18.97 8.55,-26.43 8.55,-26.43 1.85,-22.27 3.35,-58.79 3.35,-81.14l0 -15.48c0,-22.35 -18.27,-40.64 -40.64,-40.64l-44.62 0c-22.36,0 -40.64,-18.29 -40.64,-40.64l0 -59.19c0,-22.36 18.29,-40.64 40.64,-40.64l227.53 0c22.37,0 40.64,18.29 40.64,40.64l0 428.99c0,22.37 -18.27,40.64 -40.64,40.64l-59.21 0c-22.33,0 -40.64,-18.27 -40.64,-40.64l0 -6.18c0,-22.35 -1.18,-40.64 -2.64,-40.64 -22.98,37.12 -50.57,63.42 -82.85,78.86 -32.27,15.44 -70.91,23.22 -115.97,23.22 -58.32,0 -105.85,-10.18 -142.47,-30.5 -36.72,-20.34 -65.41,-51.71 -86.18,-94.13 -20.77,-42.39 -34.69,-94.77 -41.74,-157.06 -7.09,-62.3 -10.61,-134.56 -10.61,-216.7 0,-79.58 5.06,-149.36 15.24,-209.46 10.12,-60.07 27.6,-110.22 52.35,-150.46 24.73,-40.19 57.42,-70.43 98.07,-90.77 40.64,-20.32 91.48,-30.5 152.44,-30.5 104.26,0 179.39,25.87 225.31,77.57 45.97,51.67 63.5,181.73 63.5,181.73 3.01,22.15 -12.82,40.28 -35.19,40.28l-142.26 0c0,-17.66 -2.01,-35.79 -5.97,-54.34z"/>
  <path class="fil1" d="M4615.16 1002.8c22.35,0 36.8,-17.89 32.08,-39.75l-74.35 -345.98c-4.73,-21.87 -9.15,-39.75 -9.88,-39.75 -0.75,0 -5.16,17.89 -9.9,39.75l-74.37 345.98c-4.68,21.86 9.77,39.75 32.1,39.75l104.31 0zm25.15 -589.82c22.37,0 45.33,17.68 51.05,39.3l229.72 867.77c5.71,21.62 -7.89,39.3 -30.26,39.3l-117.51 0c-22.35,0 -44.54,-17.86 -49.34,-39.7l-26.38 -120.72c-4.78,-21.85 -26.97,-39.71 -49.3,-39.71l-170.59 0c-22.33,0 -44.54,17.86 -49.3,39.71l-26.39 120.72c-4.78,21.84 -26.97,39.7 -49.32,39.7l-117.54 0c-22.37,0 -35.97,-17.68 -30.24,-39.3l229.7 -867.77c5.71,-21.62 28.67,-39.3 51.05,-39.3l154.64 0z"/>
  <path class="fil1" d="M5411.99 639.61c-3.96,-18.55 -10.4,-35.56 -19.2,-51.02 -8.86,-15.44 -20.14,-28.29 -33.81,-38.47 -13.71,-10.12 -30.3,-15.24 -49.7,-15.24 -45.97,0 -79.11,25.64 -99.41,76.92 -20.34,51.25 -30.48,136.07 -30.48,254.46 0,56.59 1.75,107.84 5.29,153.78 3.51,45.97 9.95,85.04 19.22,117.29 9.27,32.29 22.53,57.02 39.77,74.23 17.23,17.25 39.54,25.85 66.93,25.85 11.46,0 24.04,-3.07 37.78,-9.29 13.7,-6.16 26.52,-15.42 38.43,-27.82 11.95,-12.38 21.89,-28.05 29.85,-47.07 7.93,-18.97 8.55,-26.43 8.55,-26.43 1.83,-22.27 3.34,-58.79 3.34,-81.14l0 -15.48c0,-22.35 -18.27,-40.64 -40.64,-40.64l-44.6 0c-22.36,0 -40.64,-18.29 -40.64,-40.64l0 -59.19c0,-22.36 18.29,-40.64 40.64,-40.64l227.53 0c22.36,0 40.64,18.29 40.64,40.64l0 428.99c0,22.37 -18.29,40.64 -40.64,40.64l-59.21 0c-22.33,0 -40.64,-18.27 -40.64,-40.64l0 -6.18c0,-22.35 -1.18,-40.64 -2.67,-40.64 -22.96,37.12 -50.57,63.42 -82.83,78.86 -32.27,15.44 -70.92,23.22 -115.97,23.22 -58.34,0 -105.85,-10.18 -142.49,-30.5 -36.7,-20.34 -65.41,-51.71 -86.18,-94.13 -20.77,-42.39 -34.69,-94.77 -41.74,-157.06 -7.09,-62.3 -10.6,-134.56 -10.6,-216.7 0,-79.58 5.07,-149.36 15.24,-209.46 10.14,-60.07 27.62,-110.22 52.37,-150.46 24.73,-40.19 57.43,-70.43 98.07,-90.77 40.64,-20.32 91.47,-30.5 152.45,-30.5 104.24,0 179.37,25.87 225.31,77.57 45.94,51.67 63.5,181.73 63.5,181.73 3.01,22.15 -12.84,40.28 -35.19,40.28l-142.28 0c0,-17.66 -1.99,-35.79 -5.96,-54.34z"/>
  <path class="fil1" d="M6263.63 528.73c0,22.36 -18.29,40.64 -40.64,40.64l-256.73 0c-22.33,0 -40.64,18.29 -40.64,40.64l0 141.39c0,22.35 18.31,40.64 40.64,40.64l236.84 0c22.33,0 40.64,18.29 40.64,40.64l0 75.15c0,22.35 -18.31,40.64 -40.64,40.64l-236.84 0c-22.33,0 -40.64,18.29 -40.64,40.64l0 173.19c0,22.35 18.31,40.64 40.64,40.64l269.96 0c22.35,0 40.64,18.29 40.64,40.64l0 75.11c0,22.37 -18.29,40.64 -40.64,40.64l-460.83 0c-22.36,0 -40.64,-18.27 -40.64,-40.64l0 -865.07c0,-22.36 18.29,-40.64 40.64,-40.64l447.6 0c22.36,0 40.64,18.29 40.64,40.64l0 75.1z"/>
  <path class="fil2" d="M204.19 445.61l-191.77 925.43 182.95 0 74.95 -356.36c5.14,-23.14 12.86,-46.29 22.78,-68.7 9.92,-22.41 22.78,-42.61 37.84,-59.88 15.06,-17.27 33.06,-31.23 54.37,-41.88 20.94,-10.66 45.56,-16.16 73.11,-16.16 21.68,0 41.51,6.61 60.25,19.47 18.74,12.86 27.92,29.39 27.92,49.23 0,9.55 -1.47,22.78 -4.41,40.04 -3.31,17.26 -5.51,31.23 -7.35,41.51l-81.56 392.73 184.06 0 82.66 -392.73c1.1,-6.25 2.57,-14.33 4.78,-24.25 2.21,-9.92 4.41,-20.21 6.61,-31.59 1.84,-11.02 3.67,-22.04 5.51,-33.06 1.84,-10.66 2.57,-19.47 2.57,-26.45 0,-120.13 -65.03,-180.02 -195.44,-180.02 -30.49,0 -57.68,3.31 -81.56,9.55 -24.25,6.61 -45.56,14.69 -63.56,23.88 -18.37,9.55 -33.8,19.84 -46.66,31.23 -12.86,11.39 -23.14,21.68 -30.13,31.23l-2.57 0 68.7 -333.21 -184.05 0zm1136.46 925.43l139.97 -670.1 -184.05 0 -74.95 356.36c-5.14,23.51 -12.86,46.29 -22.78,68.7 -9.92,22.41 -22.41,42.25 -37.47,59.51 -15.06,17.27 -33.43,31.59 -54.37,42.25 -21.31,10.66 -45.93,16.16 -73.48,16.16 -21.68,0 -41.51,-6.61 -60.25,-19.47 -18.74,-12.86 -27.92,-29.39 -27.92,-49.23 0,-4.04 0.36,-9.92 0.73,-17.26 0.37,-7.35 1.47,-15.06 2.57,-22.78 1.1,-7.71 2.57,-15.43 4.04,-22.78 1.1,-7.34 2.57,-13.59 4.41,-18.74l81.56 -392.73 -184.06 0 -82.66 392.73c-1.84,6.25 -3.67,13.96 -5.88,23.88 -2.21,9.92 -4.41,20.58 -6.61,31.96 -2.21,11.39 -4.04,22.41 -5.14,33.06 -1.1,10.66 -1.84,19.47 -1.84,26.45 0,119.4 65.03,178.92 195.45,178.92 96.62,0 174.87,-36.74 234.76,-110.21l2.57 0 -20.58 93.31 175.97 0zm254.02 -925.43l-193.24 925.43 168.62 0 22.04 -105.07 2.57 0c16.53,46.66 43.71,78.62 82.29,95.89 38.58,17.26 80.83,26.08 127.48,26.08 56.94,0 107.27,-12.13 150.62,-36.37 42.99,-24.25 79.36,-56.21 108.75,-95.52 29.39,-39.31 51.43,-84.13 66.13,-134.46 14.69,-50.33 22.04,-101.76 22.04,-153.57 0,-38.94 -4.41,-75.68 -13.59,-110.21 -9.18,-34.53 -23.14,-64.66 -42.61,-90.75 -19.47,-26.08 -44.45,-46.66 -74.58,-61.72 -30.49,-15.06 -67.23,-22.41 -110.21,-22.41 -44.09,0 -81.19,6.98 -110.95,21.31 -29.76,14.33 -59.15,36.74 -87.43,67.96l-2.57 0 68.7 -326.6 -184.05 0zm242.47 375.83c47.39,0 81.19,14.33 101.03,42.61 19.84,28.66 29.76,64.29 29.76,106.54 0,28.29 -3.67,59.15 -11.02,91.85 -7.34,32.7 -19.1,63.19 -34.9,91.48 -16.16,28.29 -36.37,51.43 -60.98,69.44 -24.61,18 -54.74,27.18 -90.01,27.18 -42.25,0 -75.31,-13.23 -98.46,-39.68 -23.51,-26.08 -35.27,-60.25 -35.27,-101.76 0,-29.39 3.67,-60.98 11.02,-94.78 7.35,-33.43 19.11,-64.66 35.27,-93.31 15.8,-28.29 36.38,-52.17 61.36,-71.27 24.98,-18.74 55.84,-28.29 92.21,-28.29z"/>
  <path class="fil3 str0" d="M388.33 445.67l-68.68 333.08 2.6 0c6.89,-9.49 16.84,-19.86 29.79,-31.11 12.97,-11.2 28.51,-21.58 46.66,-31.09 18.14,-9.51 39.32,-17.49 63.52,-23.98 24.16,-6.48 51.39,-9.73 81.65,-9.73 130.43,0 195.68,60.07 195.68,180.16 0,6.93 -0.85,15.77 -2.58,26.56 -1.75,10.81 -3.67,21.84 -5.83,33.06 -2.18,11.24 -4.33,21.83 -6.49,31.74 -2.17,9.95 -3.67,17.96 -4.53,23.97l-82.95 392.72 -184.04 0 81.65 -392.72c1.73,-10.36 4.1,-24.18 7.13,-41.47 3.03,-17.27 4.53,-30.64 4.53,-40.17 0,-19.86 -9.29,-36.29 -27.86,-49.26 -18.59,-12.95 -38.69,-19.43 -60.27,-19.43 -27.66,0 -52.06,5.4 -73.22,16.2 -21.19,10.83 -39.34,24.85 -54.44,42.12 -15.14,17.29 -27.65,37.16 -37.59,59.62 -9.94,22.48 -17.5,45.36 -22.68,68.68l-75.16 356.42 -182.75 0 191.81 -925.38 184.04 0z"/>
  <path class="fil3 str0" d="M1164.65 1371.04l20.75 -93.31 -2.6 0c-59.62,73.44 -137.83,110.16 -234.58,110.16 -130.47,0 -195.71,-59.6 -195.71,-178.86 0,-6.91 0.65,-15.75 1.95,-26.56 1.28,-10.79 3.01,-21.8 5.18,-33.04 2.15,-11.22 4.31,-21.8 6.48,-31.76 2.15,-9.92 4.08,-17.92 5.84,-23.98l82.95 -392.69 184.02 0 -81.64 392.69c-1.75,5.18 -3.23,11.46 -4.53,18.8 -1.3,7.36 -2.58,14.9 -3.88,22.68 -1.3,7.79 -2.17,15.35 -2.6,22.68 -0.45,7.36 -0.65,13.19 -0.65,17.5 0,19.9 9.29,36.29 27.88,49.26 18.55,12.97 38.65,19.45 60.27,19.45 27.62,0 52.04,-5.4 73.22,-16.21 21.15,-10.79 39.3,-24.83 54.44,-42.12 15.1,-17.27 27.64,-37.12 37.57,-59.6 9.94,-22.48 17.49,-45.37 22.7,-68.7l75.17 -356.4 184.04 0 -139.99 670.05 -176.26 0z"/>
  <path class="fil3 str0" d="M1778.96 445.67l-68.68 326.59 2.58 0c28.51,-31.09 57.67,-53.79 87.48,-68.03 29.81,-14.26 66.75,-21.39 110.81,-21.39 43.2,0 79.92,7.57 110.18,22.7 30.24,15.12 55.07,35.64 74.51,61.55 19.45,25.93 33.69,56.18 42.77,90.73 9.07,34.57 13.62,71.29 13.62,110.16 0,51.84 -7.36,103.03 -22.05,153.58 -14.69,50.56 -36.72,95.49 -66.1,134.79 -29.38,39.34 -65.65,71.08 -108.86,95.26 -43.22,24.18 -93.31,36.29 -150.35,36.29 -46.66,0 -89.21,-8.66 -127.66,-25.93 -38.44,-17.27 -65.9,-49.26 -82.3,-95.89l-2.6 0 -22.03 104.97 -168.47 0 193.1 -925.38 184.04 0zm-33.69 404.36c-25.07,19.02 -45.6,42.77 -61.57,71.29 -16,28.51 -27.65,59.62 -34.99,93.31 -7.34,33.69 -11.01,65.25 -11.01,94.61 0,41.48 11.66,75.39 34.99,101.75 23.33,26.36 56.14,39.53 98.49,39.53 35.42,0 65.45,-9.07 90.08,-27.21 24.62,-18.14 44.91,-41.25 60.9,-69.35 16,-28.06 27.66,-58.51 35.02,-91.36 7.32,-32.82 11.01,-63.51 11.01,-92.01 0,-42.33 -9.96,-77.77 -29.81,-106.28 -19.89,-28.51 -53.58,-42.77 -101.09,-42.77 -36.29,0 -66.98,9.51 -92.01,28.51z"/>
  <path class="fil0" d="M1560.75 278.8l47.06 -67.08 4.94 -0.75 57.65 52.12c81.1,-80.24 163.03,-131.41 245.77,-153.62l1.12 -1.54 -5.71 -88.68 123.06 -19.24 8.39 91.12c41.13,-2.44 77.08,0.44 107.8,8.69 72.42,18.54 123.96,39.85 154.5,63.99l49.3 -70.25 4.92 -0.79 57.63 52.11 0.44 5.63 -122.13 174.03 -4.91 0.77 -12.07 -10.92c-25.93,-23.41 -67.57,-46.27 -124.95,-68.58 -47.29,-12.76 -95,-17.58 -143.14,-14.55 -68.64,11.4 -123.61,30.46 -164.92,57.02 -56.55,38.92 -97.6,76.63 -123.19,113.11l-10.06 14.38 -4.94 0.77 -146.12 -132.16 -0.45 -5.57z"/>
 </g>
</svg>
